
<svg viewBox="0 0 512 512">
<g>
	<g>
		<g>
			<path d="M448,0h-32v32h32c17.673,0,32,14.327,32,32v384c0,17.673-14.327,32-32,32H64c-17.673,0-32-14.327-32-32V64
				c0-17.673,14.327-32,32-32h192V0H64C28.654,0,0,28.654,0,64v384c0,35.346,28.654,64,64,64h384c35.346,0,64-28.654,64-64V64
				C512,28.654,483.346,0,448,0z"/>
			<rect x="352" width="32" height="32"/>
			<rect x="288" width="32" height="32"/>
			<path d="M80,191.312v113.376l176,114.384l176-114.384V191.312L256,76.928L80,191.312z M112,229.488L140.48,248L112,266.512
				V229.488z M256,380.928L125.36,296l44.48-28.912L256,323.072l86.16-56l44.48,28.912L256,380.928z M199.2,248l56.8-36.928
				L312.8,248L256,284.928L199.2,248z M400,266.512L371.52,248L400,229.488V266.512z M342.16,228.912L256,172.928l-86.16,56
				L125.36,200L256,115.072L386.64,200L342.16,228.912z"/>
		</g>
	</g>
</g>
<g>
</g>
<g>
</g>
<g>
</g>
<g>
</g>
<g>
</g>
<g>
</g>
<g>
</g>
<g>
</g>
<g>
</g>
<g>
</g>
<g>
</g>
<g>
</g>
<g>
</g>
<g>
</g>
<g>
</g>
</svg>
